<?xml version="1.0" encoding="utf-8"?><svg width="138" height="127" viewBox="0 0 138 127" xmlns="http://www.w3.org/2000/svg" xmlns:xlink="http://www.w3.org/1999/xlink"><svg width="97" height="82.4" viewBox="-479.5 280.8 97 82.4" id="404-bot" xmlns="http://www.w3.org/2000/svg"><path fill="#4BA5DC" d="M-455.3 314.1c-.6 0-1.1-.5-1.1-1.1v-10c0-.6.5-1.1 1.1-1.1.6 0 1.1.5 1.1 1.1v10.1c0 .6-.5 1-1.1 1z"/><path fill="#DF492A" d="M-448.3 313.9c-.6 0-1.1-.5-1.1-1.1 0-2.9 2.3-5.2 5.2-5.2h4.6c1.7 0 3.1-1.4 3.1-3.1 0-.6.5-1.1 1.1-1.1.6 0 1.1.5 1.1 1.1 0 2.9-2.3 5.2-5.2 5.2h-4.6c-1.7 0-3.1 1.4-3.1 3.1-.1.6-.6 1.1-1.1 1.1zM-463.7 318.8c-.6 0-1.1-.5-1.1-1.1v-4.6c0-1.8-1.4-3.2-3.2-3.2-2.9 0-5.3-2.4-5.3-5.3v-4.3c0-.6.5-1.1 1.1-1.1.6 0 1.1.5 1.1 1.1v4.3c0 1.8 1.4 3.2 3.2 3.2 2.9 0 5.3 2.4 5.3 5.3v4.6c-.1.6-.5 1.1-1.1 1.1z"/><path fill="#FCDC8A" d="M-454.2 314.7c-.6 0-1.1-.5-1.1-1.1v-4c0-1.7 1.4-3.1 3.1-3.1.5 0 1-.4 1-1v-7.8c0-.6.5-1.1 1.1-1.1s1.1.5 1.1 1.1v7.8c0 1.7-1.4 3.1-3.1 3.1-.5 0-1 .4-1 1v4c-.1.6-.5 1.1-1.1 1.1z"/><path fill="#223340" d="M-456.4 314.8c-.6 0-1.1-.5-1.1-1.1v-2.1c0-.9-.7-1.7-1.7-1.7-2.1 0-3.8-1.7-3.8-3.8v-4.9c0-.6.5-1.1 1.1-1.1s1.1.5 1.1 1.1v4.9c0 .9.7 1.7 1.7 1.7 2.1 0 3.8 1.7 3.8 3.8v2.1c0 .6-.5 1.1-1.1 1.1z"/><path fill="#FFE5B3" d="M-408 335.6c-14.7 0-24.4 11.9-24.4 26.6h37.5c4.5-22.4-13.1-26.6-13.1-26.6z"/><path fill="#FFDD8A" d="M-478.4 313.7v23.7h6.7v24.8h33.6v-24.8h5.4v-23.7zM-415.9 346.1h22.4v16.1h-22.4z"/><path fill="#DF492A" d="M-454.6 322h15.7v7.1h-15.7z"/><path fill="#223340" d="M-407.4 352.4c0-.9.7-1.6 1.6-1.6.9 0 1.6.7 1.6 1.6s-.7 1.6-1.6 1.6c-.9 0-1.6-.8-1.6-1.6zm8.4 1.5c.9 0 1.6-.7 1.6-1.6s-.7-1.6-1.6-1.6-1.6.7-1.6 1.6.7 1.6 1.6 1.6zm-6.8 4.6h7.2c0-2-1.6-3.6-3.6-3.6s-3.6 1.6-3.6 3.6zm23.4 3.7c0 .6-.5 1.1-1.1 1.1h-48.9c-.6 0-1.1-.5-1.1-1.1 0-16 10.7-27.7 25.5-27.7s25.5 11.6 25.5 27.6c.1 0 .1.1.1.1zm-12.2-14.5h-16.6v13.4h16.6v-13.4zm10 13.5c-.5-14.3-10.1-24.5-23.4-24.5s-22.9 10.2-23.3 24.5h7.9v-14.6c0-.6.5-1.1 1.1-1.1h13.4v-2.1c-.9-.4-1.5-1.3-1.5-2.4 0-1.4 1.2-2.6 2.6-2.6 1.4 0 2.6 1.2 2.6 2.6 0 1.1-.6 2-1.5 2.4v2.1h13.2c.6 0 1.1.5 1.1 1.1v14.6h7.8z"/><path fill="#223340" d="M-455.6 322v7.1c0 .6.5 1.1 1.1 1.1h15.7c.6 0 1.1-.5 1.1-1.1V322c0-.6-.5-1.1-1.1-1.1h-15.8c-.6.1-1 .5-1 1.1zm2.1 1.1h13.6v5h-13.6v-5zm48.7-42.3c-.6 0-1.1.5-1.1 1.1 0 1.9-1.6 3.5-3.5 3.5s-3.4-1.6-3.4-3.5c0-.6-.5-1.1-1.1-1.1s-1.1.5-1.1 1.1c0 2.7 1.9 5 4.5 5.5v13.9c0 9.3-7.5 16.8-16.8 16.8h-4.5v-4.3c0-.6-.5-1.1-1.1-1.1h-13c2.4-3.2 3.9-7.2 3.9-11.5v-13.9c2.6-.5 4.5-2.7 4.5-5.4 0-.6-.5-1.1-1-1.1-.6 0-1.1.5-1.1 1.1 0 1.9-1.6 3.5-3.5 3.5-1.9-.1-3.4-1.6-3.4-3.5 0-.6-.5-1.1-1.1-1.1s-1.1.5-1.1 1.1c0 2.7 1.9 5 4.5 5.5v13.9c0 4.4-1.7 8.5-4.6 11.5h-29.6c-.6 0-1.1.5-1.1 1.1v23.6c0 .6.5 1.1 1.1 1.1h5.1v23.8c0 .6.5 1.1 1.1 1.1h34.1c.6 0 1.1-.5 1.1-1.1v-24h4.3c.6 0 1.1-.5 1.1-1.1v-17.2h4.5c10.4 0 18.9-8.5 18.9-18.9v-13.9c2.6-.5 4.5-2.8 4.5-5.5-.1-.5-.6-1-1.1-1zM-473 336h-3.8v-17h3.7v17h.1zm6.4 24.8h-3.7v-18.2h3.7v18.2zm7-46h8.6c-2.4 1.8-5.4 2.9-8.6 3.1v-3.1zm9 46.4h-9.3v-22.8h9.3v22.8zm11.4 0h-9.3v-22.8h9.3v22.8zm5.4-24.9H-459.6v-16.2c4.6-.3 8.7-2.3 11.9-5.3h14l-.1 21.5z"/></svg><svg width="44" height="44" viewBox="0 0 44 44" id="area-is" y="82.4" xmlns="http://www.w3.org/2000/svg"><defs><path d="M13.782 13.334v-6.48c0-.471.375-.854.837-.854h24.544c.462 0 .837.383.837.855v34.957a.846.846 0 0 1-.837.854h-6.946v6.48a.846.846 0 0 1-.837.854H6.837A.846.846 0 0 1 6 49.145V14.188c0-.472.375-.854.837-.854h6.945zm1.674 0H31.38c.462 0 .837.382.837.854v26.77h6.109V7.708h-22.87v5.625zm-.967 1.709H7.674V48.29h22.869V15.043H14.749a.827.827 0 0 1-.26 0zm.815 19.096a1.203 1.203 0 0 1-.247.37 1.165 1.165 0 0 1-.834.35 1.178 1.178 0 0 1-1.091-.763c-.573-.16-1.023-.46-1.315-.902-.736-1.125-.239-2.848 1.17-4.646-.2-.225-.386-.45-.557-.677-1.143-1.51-1.465-2.885-.908-3.874.557-.99 1.885-1.388 3.736-1.133.2.027.402.061.608.103.07-.208.144-.41.222-.603a1.511 1.511 0 0 1 .078-2.019 1.436 1.436 0 0 1 1.578-.327 2.167 2.167 0 0 1 1.166-.37c1.218 0 2.27 1.167 2.96 3.06.112-.026.222-.051.33-.074 1.834-.378 3.183-.066 3.802.881.62.947.387 2.34-.657 3.922-.157.239-.33.478-.518.718.354.395.662.791.916 1.183.05.074.082.157.094.243.764.042 1.372.688 1.372 1.48 0 .594-.343 1.106-.837 1.342a.577.577 0 0 1-.073.3c-.462.821-1.44 1.222-2.732 1.222a8.286 8.286 0 0 1-1.607-.172c-.687 2.042-1.776 3.312-3.05 3.312-1.217 0-2.268-1.165-2.96-3.057-.22.053-.436.097-.646.131zm-.091-1.137a8.09 8.09 0 0 0 .4-.085 16.305 16.305 0 0 1-.42-2.371c-.51-.383-.985-.781-1.416-1.188-1.062 1.38-1.442 2.588-1.039 3.203.114.174.294.307.532.398.214-.305.564-.503.959-.502.412 0 .774.217.984.545zm9.902-.613a1.485 1.485 0 0 1-.808-1.328c0-.444.191-.842.494-1.113a8.491 8.491 0 0 0-.714-.931c-.434.465-.918.925-1.444 1.368a16.847 16.847 0 0 1-.367 2.258c1.326.254 2.345.153 2.839-.254zm-8.028-9.507c-.046.116-.09.235-.132.358.59.176 1.198.401 1.813.67a15.491 15.491 0 0 1 2.028-.882c-.524-1.413-1.224-2.24-1.886-2.24a1.11 1.11 0 0 0-.351.078c.062.167.096.347.096.533 0 .821-.653 1.487-1.458 1.487-.037 0-.073-.001-.11-.004zm.424 1.745c-.295-.11-.587-.208-.873-.294-.078.325-.146.664-.204 1.013a21.322 21.322 0 0 1 1.077-.719zm-1.958-.56a8.888 8.888 0 0 0-.444-.073c-1.34-.184-2.314.03-2.62.57-.308.538 0 1.516.824 2.603.13.171.27.342.42.514.429-.46.913-.917 1.448-1.366.08-.79.204-1.546.372-2.248zm-.462 4.94a22.043 22.043 0 0 1-.005-1.094c-.202.194-.393.387-.571.578.183.174.375.346.576.516zm1.166.903a18.87 18.87 0 0 0 2.759 1.616A18.938 18.938 0 0 0 21.57 29.8a19.981 19.981 0 0 0-.01-3.01 18.791 18.791 0 0 0-2.753-1.613 18.816 18.816 0 0 0-2.558 1.719 19.767 19.767 0 0 0 .007 3.013zm.18 1.494c.07.423.155.821.25 1.194.341-.121.696-.264 1.061-.43a20.917 20.917 0 0 1-1.31-.764zm4.945-6.097c-.07-.422-.155-.82-.25-1.192-.348.122-.704.265-1.064.427a20.27 20.27 0 0 1 1.314.765zm-.512 8.173a15.665 15.665 0 0 1-1.821-.677c-.696.363-1.376.66-2.025.886.524 1.412 1.225 2.238 1.886 2.238.694 0 1.43-.908 1.96-2.447zm.318-1.107c.076-.32.144-.66.202-1.015a20.405 20.405 0 0 1-1.077.72c.3.112.592.21.875.295zm1.438-6.206c.505.379.976.773 1.403 1.174.138-.18.266-.36.384-.539.751-1.14.997-2.132.655-2.652-.222-.35-.742-.531-1.457-.531h-.005c-.4.004-.797.049-1.188.133-.07.014-.14.03-.21.047.186.72.328 1.516.418 2.368zm.103 1.525a22.042 22.042 0 0 1 .006 1.088c.198-.19.387-.383.566-.577a14.412 14.412 0 0 0-.572-.51zm-5.532-6.642a.345.345 0 0 0-.341.349c0 .193.153.349.341.349a.345.345 0 0 0 .342-.349.352.352 0 0 0-.1-.247.338.338 0 0 0-.242-.103v.001zm8.561 9.663a.338.338 0 0 0-.335.342c0 .189.15.342.335.342a.338.338 0 0 0 .335-.342.338.338 0 0 0-.335-.342zm2.035 10.733h-8.74a.846.846 0 0 1-.837-.855c0-.472.375-.854.837-.854h8.74c.462 0 .837.382.837.854a.846.846 0 0 1-.837.855zm-.962 2.687h-5.148a.846.846 0 0 1-.837-.855c0-.472.375-.854.837-.854h5.148c.462 0 .837.382.837.854a.846.846 0 0 1-.837.855zm-.839 2.689H23.36a.846.846 0 0 1-.837-.855c0-.472.375-.854.837-.854h2.633c.463 0 .837.382.837.854a.846.846 0 0 1-.837.855zm18.072-7.613a.825.825 0 0 1-.009-.12v-18c0-.108.021-.212.06-.308a2.275 2.275 0 0 1-.115-.744C44 18.362 45.345 17 47 17s3 1.362 3 3.037c0 .26-.034.496-.102.707a.828.828 0 0 1 .076.345v18c0 .08-.012.16-.035.235a.83.83 0 0 1-.036.212l-1.989 6.375v2.23c-.002.475-.404.859-.9.859-.497 0-.9-.386-.9-.862v-2.135l-2.017-6.467a.828.828 0 0 1-.033-.327zm1.791-17.258v12.576h2.319V21.951h-2.319zm0 14.3v2.176h2.319v-2.176h-2.319zm1.147-16.049h.404c.262.013.525.005.787-.023.007-.05.01-.1.01-.15 0-.725-.54-1.313-1.2-1.313-.662 0-1.2.588-1.2 1.313-.001.05.002.1.009.15.261.028.525.036.787.023.131.002.263 0 .401 0h.002zm-.834 19.95L47 42.817l.832-2.667h-1.664z" id="ba"/></defs><g transform="translate(-6 -6)" fill="none" fill-rule="evenodd"><mask id="bb" fill="#fff"><use xlink:href="#ba"/></mask><use fill="#009ADE" xlink:href="#ba"/><g mask="url(#bb)" fill="#009ADE" fill-rule="nonzero"><path d="M0 0h54v54H0z"/></g></g></svg><svg width="41" height="47" viewBox="0 0 41 47" id="bulb-is" x="97" xmlns="http://www.w3.org/2000/svg"><defs><path d="M45.25 10.711a.75.75 0 0 1 .693.487.818.818 0 0 1-.163.86L42.03 16l-1.06-1.115 2.47-2.596h-2.69a.75.75 0 0 1-.693-.487.818.818 0 0 1 .163-.86L43.97 7l1.06 1.115-2.47 2.596h2.69zM43 4a7.008 7.008 0 0 1 7 7 7 7 0 1 1-7-7zm0 12.444A5.45 5.45 0 0 0 48.444 11 5.444 5.444 0 1 0 43 16.444zm-13.75 2.267a.75.75 0 0 1 .693.487.818.818 0 0 1-.163.86L26.03 24l-1.06-1.115 2.47-2.596h-2.69a.75.75 0 0 1-.693-.487.818.818 0 0 1 .163-.86L27.97 15l1.06 1.115-2.47 2.596h2.69zM27 12a7.008 7.008 0 0 1 7 7 7 7 0 1 1-7-7zm0 12.444A5.45 5.45 0 0 0 32.444 19 5.444 5.444 0 1 0 27 24.444zM44.9 20c.066.659.1 1.33.1 2h-1.909c0-.61-.03-1.225-.091-1.826L44.9 20zM32.48 5c.515.18 1.026.386 1.52.613L33.388 7A15.56 15.56 0 0 0 32 6.44L32.48 5zm-3.257-1c.596.084 1.194.2 1.777.342L30.622 6A16.813 16.813 0 0 0 29 5.688L29.223 4zm15.68 20.541a18.019 18.019 0 0 1-5.657 10.74 10.758 10.758 0 0 0-3.55 7.39 2.733 2.733 0 0 1-1.2 5.196h-.537c.093.25.142.515.144.783A2.354 2.354 0 0 1 31.75 51h-9.414a2.354 2.354 0 0 1-2.353-2.35 2.32 2.32 0 0 1 .145-.783h-.537a2.733 2.733 0 1 1-1.204-5.194 10.771 10.771 0 0 0-3.544-7.39 17.997 17.997 0 0 1-4.813-19.27A18.035 18.035 0 0 1 25.89 4.034c.327-.02.725-.029 1.06-.032V4h.089l.008.002c.242 0 .483.003.723.012l-.018.448c.048.1.073.21.075.321v5.482h-1.57V5.584a16.466 16.466 0 0 0-14.75 10.953 16.432 16.432 0 0 0 4.396 17.592 12.359 12.359 0 0 1 4.056 8.254h14.17a12.38 12.38 0 0 1 4.055-8.256 16.465 16.465 0 0 0 5.014-8.915l-7.53-.03.006-1.566 7.756.03.008-.067 1.561.15c-.026.273-.059.544-.096.812zM31.75 49.433a.784.784 0 1 0 0-1.566h-9.414a.784.784 0 1 0 0 1.566h9.414zm2.745-3.133a1.176 1.176 0 1 0 0-2.35H19.591a1.176 1.176 0 1 0 0 2.35h14.904zm-3.903-9.534a.803.803 0 0 1-1.134 0l-2.408-2.4 1.135-1.132 1.038 1.035V30.6H22V29h8.025c.443 0 .803.358.803.8v4.469l1.037-1.035L33 34.366l-2.408 2.4zM23.03 41a.8.8 0 0 1-.797-.802V36.19l-.957 1.283L20 36.51l2.391-3.207a.823.823 0 0 1 1.275 0l2.392 3.207-1.275.962-.957-1.283v3.207H31V41h-7.971z" id="ca"/></defs><g transform="translate(-9 -4)" fill="none" fill-rule="evenodd"><mask id="cb" fill="#fff"><use xlink:href="#ca"/></mask><use fill="#000" xlink:href="#ca"/><g mask="url(#cb)" fill-rule="nonzero"><path d="M0 0h54v54H0z"/></g></g></svg></svg>